<svg width="570" height="570" viewBox="0 0 570 570" fill="none" xmlns="http://www.w3.org/2000/svg">
<g clip-path="url(#clip0_57_38)">
<path d="M284.919 563.08C438.543 563.08 563.08 438.543 563.08 284.919C563.08 131.295 438.543 6.7583 284.919 6.7583C131.295 6.7583 6.7583 131.295 6.7583 284.919C6.7583 438.543 131.295 563.08 284.919 563.08Z" fill="white" stroke="#282457" stroke-width="13.5166" stroke-linecap="round" stroke-linejoin="round"/>
<path d="M272.993 43.4971C234.829 43.5593 197.353 53.6592 164.327 72.783C131.3 91.9068 103.884 119.382 84.8306 152.45L197.905 217.724L272.993 261.077V43.4971Z" fill="#EC4899" stroke="#282457" stroke-width="13.5166" stroke-linecap="round" stroke-linejoin="round"/>
<path d="M261.071 284.919L185.984 241.566L72.9095 176.292C53.7514 209.296 43.61 246.758 43.5029 284.919C43.5056 323.109 53.5591 360.625 72.6533 393.698L185.984 328.272L261.071 284.919Z" fill="#3B82F6" stroke="#282457" stroke-width="13.5166" stroke-linecap="round" stroke-linejoin="round"/>
<path d="M272.992 308.761L197.904 352.114L84.5742 417.54C103.668 450.618 131.133 478.086 164.207 497.185C197.282 516.284 234.8 526.339 272.992 526.341V395.467V308.761Z" fill="#22C55E" stroke="#282457" stroke-width="13.5166" stroke-linecap="round" stroke-linejoin="round"/>
<path d="M296.834 308.761V395.467V526.341C334.997 526.28 372.472 516.182 405.498 497.06C438.525 477.939 465.941 450.466 484.996 417.4L296.834 308.761Z" fill="#FACC15" stroke="#282457" stroke-width="13.5166" stroke-linecap="round" stroke-linejoin="round"/>
<path d="M308.755 284.919L496.917 393.558C516.081 360.552 526.227 323.086 526.335 284.919C526.335 246.726 516.281 209.206 497.185 176.129L308.755 284.919Z" fill="#F97316" stroke="#282457" stroke-width="13.5166" stroke-linecap="round" stroke-linejoin="round"/>
<path d="M296.834 43.4971V261.077L485.264 152.287C466.167 119.21 438.7 91.7423 405.624 72.6455C372.548 53.5488 335.027 43.4958 296.834 43.4971Z" fill="#EF4444" stroke="#282457" stroke-width="13.5166" stroke-linecap="round" stroke-linejoin="round"/>
<path d="M76.2568 240.29C75.3208 240.29 74.5123 240.63 73.8314 241.31C73.1505 241.991 72.8042 242.8 72.8042 243.736V326.208C72.8042 327.144 73.1505 327.952 73.8314 328.633C74.5123 329.314 75.3206 329.653 76.2568 329.653H92.9781C93.914 329.653 94.7227 329.314 95.4035 328.633C96.0841 327.953 96.4236 327.144 96.4236 326.208V243.736C96.4236 242.8 96.0841 241.991 95.4035 241.31C94.7229 240.63 93.9143 240.29 92.9781 240.29H76.2568ZM117.746 240.29C116.81 240.29 116.001 240.63 115.321 241.31C114.64 241.991 114.3 242.8 114.3 243.736V326.208C114.3 327.144 114.64 327.952 115.321 328.633C116.001 329.314 116.81 329.66 117.746 329.66H134.467C135.403 329.66 136.212 329.314 136.893 328.633C137.573 327.953 137.913 327.144 137.913 326.208V296.339L162.046 326.721C162.898 327.743 163.705 328.508 164.471 329.018C165.237 329.444 166.175 329.66 167.282 329.66H187.577C188.343 329.66 188.985 329.401 189.496 328.89C190.091 328.294 190.388 327.616 190.388 326.85C190.388 326.255 190.263 325.785 190.003 325.444L156.303 283.057L187.834 244.506C188.089 244.081 188.212 243.612 188.212 243.101C188.212 242.335 187.915 241.693 187.32 241.182C186.81 240.587 186.175 240.29 185.409 240.29H165.492C164.131 240.29 163.112 240.55 162.431 241.061C161.751 241.571 161.065 242.249 160.384 243.101L137.913 270.679V243.736C137.913 242.8 137.574 241.991 136.893 241.31C136.212 240.63 135.404 240.29 134.467 240.29L117.746 240.29ZM203.663 240.29C202.728 240.29 201.919 240.63 201.238 241.31C200.557 241.991 200.218 242.8 200.218 243.736V326.208C200.218 327.144 200.557 327.952 201.238 328.633C201.919 329.314 202.727 329.66 203.663 329.66H220.385C221.321 329.66 222.129 329.314 222.81 328.633C223.491 327.953 223.837 327.144 223.837 326.208V283.955L235.836 305.021C236.431 305.957 237.067 306.723 237.748 307.318C238.514 307.913 239.452 308.21 240.558 308.21H248.726C249.832 308.21 250.728 307.913 251.408 307.318C252.175 306.723 252.853 305.957 253.449 305.021L265.455 283.955V326.208C265.455 327.144 265.794 327.952 266.475 328.633C267.155 329.314 267.964 329.66 268.9 329.66H285.621C286.557 329.66 287.366 329.314 288.047 328.633C288.727 327.953 289.074 327.144 289.074 326.208V243.736C289.074 242.8 288.727 241.991 288.047 241.31C287.366 240.63 286.558 240.29 285.621 240.29H270.812C268.429 240.29 266.603 241.438 265.326 243.736L244.646 279.104L223.958 243.736C222.681 241.438 220.856 240.29 218.473 240.29H203.663ZM304.005 240.29C303.069 240.29 302.261 240.63 301.58 241.31C300.899 241.991 300.56 242.8 300.56 243.736V257.268C300.56 258.204 300.899 259.013 301.58 259.694C302.26 260.374 303.069 260.721 304.005 260.721H326.476V326.207C326.476 327.143 326.816 327.952 327.496 328.633C328.177 329.313 328.985 329.66 329.921 329.66H346.65C347.586 329.66 348.394 329.313 349.075 328.633C349.756 327.952 350.095 327.144 350.095 326.207V260.721H372.566C373.502 260.721 374.311 260.374 374.992 259.694C375.672 259.013 376.012 258.205 376.012 257.268V243.736C376.012 242.8 375.672 241.991 374.992 241.31C374.311 240.63 373.502 240.29 372.566 240.29H304.005ZM383.417 240.29C382.65 240.29 381.965 240.587 381.369 241.182C380.858 241.693 380.606 242.335 380.606 243.101C380.606 243.612 380.778 244.168 381.119 244.763L410.61 299.014V326.208C410.61 327.144 410.949 327.952 411.63 328.633C412.31 329.314 413.119 329.66 414.055 329.66H430.776C431.712 329.66 432.521 329.314 433.202 328.633C433.882 327.953 434.222 327.144 434.222 326.208V299.014L463.712 244.763C464.053 244.167 464.226 243.612 464.226 243.101C464.226 242.335 463.929 241.693 463.334 241.182C462.823 240.587 462.18 240.29 461.415 240.29H443.931C442.484 240.29 441.286 240.673 440.35 241.439C439.499 242.119 438.907 242.805 438.566 243.486L422.352 274.888L406.265 243.486C405.924 242.806 405.289 242.12 404.353 241.439C403.502 240.673 402.355 240.29 400.908 240.29H383.417ZM477.502 240.29C476.566 240.29 475.757 240.63 475.076 241.31C474.396 241.991 474.056 242.8 474.056 243.736V298.765C474.056 299.701 474.396 300.509 475.076 301.19C475.757 301.871 476.566 302.21 477.502 302.21H493.588C494.524 302.21 495.333 301.871 496.014 301.19C496.694 300.509 497.034 299.701 497.034 298.765V243.736C497.034 242.8 496.694 241.991 496.014 241.31C495.333 240.63 494.524 240.29 493.588 240.29H477.502ZM477.502 309.872C476.566 309.872 475.757 310.211 475.076 310.892C474.396 311.572 474.056 312.381 474.056 313.317V326.208C474.056 327.144 474.396 327.952 475.076 328.633C475.757 329.314 476.566 329.66 477.502 329.66H493.588C494.524 329.66 495.333 329.314 496.014 328.633C496.694 327.953 497.034 327.144 497.034 326.208V313.317C497.034 312.381 496.694 311.573 496.014 310.892C495.333 310.211 494.524 309.872 493.588 309.872H477.502Z" fill="#282457" stroke="#282457" stroke-width="31.5388"/>
<path d="M76.2568 240.031C75.3208 240.031 74.5123 240.371 73.8314 241.051C73.1505 241.732 72.8042 242.54 72.8042 243.477V325.948C72.8042 326.884 73.1505 327.693 73.8314 328.374C74.5123 329.054 75.3206 329.394 76.2568 329.394H92.9781C93.914 329.394 94.7227 329.054 95.4035 328.374C96.0841 327.693 96.4236 326.885 96.4236 325.948V243.477C96.4236 242.541 96.0841 241.732 95.4035 241.051C94.7229 240.371 93.9143 240.031 92.9781 240.031H76.2568ZM117.746 240.031C116.81 240.031 116.001 240.371 115.321 241.051C114.64 241.732 114.3 242.54 114.3 243.477V325.948C114.3 326.884 114.64 327.693 115.321 328.374C116.001 329.054 116.81 329.401 117.746 329.401H134.467C135.403 329.401 136.212 329.054 136.893 328.374C137.573 327.693 137.913 326.885 137.913 325.948V296.08L162.046 326.462C162.897 327.484 163.705 328.248 164.471 328.759C165.237 329.184 166.175 329.401 167.282 329.401H187.577C188.343 329.401 188.985 329.141 189.496 328.631C190.091 328.034 190.388 327.356 190.388 326.59C190.388 325.995 190.263 325.526 190.002 325.185L156.303 282.797L187.834 244.247C188.089 243.822 188.212 243.352 188.212 242.842C188.212 242.076 187.915 241.434 187.32 240.923C186.81 240.328 186.175 240.031 185.409 240.031H165.492C164.131 240.031 163.112 240.291 162.431 240.801C161.751 241.312 161.065 241.99 160.384 242.841L137.913 270.42V243.476C137.913 242.54 137.573 241.732 136.893 241.051C136.212 240.37 135.404 240.031 134.467 240.031L117.746 240.031ZM203.663 240.031C202.728 240.031 201.919 240.371 201.238 241.051C200.557 241.732 200.218 242.54 200.218 243.477V325.948C200.218 326.884 200.557 327.693 201.238 328.374C201.919 329.054 202.727 329.401 203.663 329.401H220.385C221.321 329.401 222.129 329.054 222.81 328.374C223.491 327.693 223.837 326.885 223.837 325.948V283.696L235.836 304.761C236.431 305.697 237.067 306.463 237.748 307.058C238.514 307.653 239.452 307.95 240.558 307.95H248.726C249.832 307.95 250.728 307.653 251.408 307.058C252.175 306.463 252.853 305.697 253.449 304.761L265.455 283.696V325.948C265.455 326.884 265.794 327.693 266.475 328.374C267.155 329.054 267.964 329.401 268.9 329.401H285.621C286.557 329.401 287.366 329.054 288.047 328.374C288.727 327.693 289.074 326.885 289.074 325.948V243.477C289.074 242.541 288.727 241.732 288.047 241.051C287.366 240.371 286.558 240.031 285.621 240.031H270.812C268.429 240.031 266.603 241.178 265.326 243.476L244.646 278.845L223.958 243.476C222.681 241.179 220.856 240.031 218.473 240.031H203.663ZM304.005 240.031C303.069 240.031 302.261 240.371 301.58 241.051C300.899 241.732 300.56 242.54 300.56 243.477V257.009C300.56 257.945 300.899 258.753 301.58 259.434C302.26 260.115 303.069 260.461 304.005 260.461H326.476V325.948C326.476 326.884 326.816 327.692 327.496 328.373C328.177 329.054 328.985 329.4 329.921 329.4H346.65C347.586 329.4 348.394 329.054 349.075 328.373C349.756 327.693 350.095 326.884 350.095 325.948V260.461H372.566C373.502 260.461 374.311 260.115 374.992 259.434C375.672 258.754 376.012 257.945 376.012 257.009V243.477C376.012 242.541 375.672 241.732 374.992 241.051C374.311 240.371 373.502 240.031 372.566 240.031H304.005ZM383.417 240.031C382.65 240.031 381.965 240.328 381.369 240.923C380.858 241.434 380.606 242.075 380.606 242.842C380.606 243.352 380.778 243.909 381.119 244.504L410.61 298.755V325.948C410.61 326.884 410.949 327.693 411.63 328.374C412.31 329.054 413.119 329.401 414.055 329.401H430.776C431.712 329.401 432.521 329.054 433.202 328.374C433.882 327.693 434.222 326.885 434.222 325.948V298.755L463.712 244.504C464.053 243.908 464.226 243.353 464.226 242.842C464.226 242.076 463.929 241.434 463.334 240.923C462.823 240.328 462.18 240.031 461.415 240.031H443.931C442.484 240.031 441.286 240.413 440.35 241.18C439.499 241.86 438.907 242.546 438.566 243.227L422.352 274.629L406.265 243.227C405.924 242.546 405.289 241.86 404.353 241.18C403.502 240.413 402.355 240.031 400.908 240.031H383.417ZM477.502 240.031C476.566 240.031 475.757 240.371 475.076 241.051C474.396 241.732 474.056 242.54 474.056 243.477V298.505C474.056 299.441 474.396 300.25 475.076 300.931C475.757 301.611 476.566 301.951 477.502 301.951H493.588C494.524 301.951 495.333 301.611 496.014 300.931C496.694 300.25 497.034 299.441 497.034 298.505V243.477C497.034 242.541 496.694 241.732 496.014 241.051C495.333 240.371 494.524 240.031 493.588 240.031H477.502ZM477.502 309.612C476.566 309.612 475.757 309.952 475.076 310.632C474.396 311.313 474.056 312.122 474.056 313.058V325.948C474.056 326.884 474.396 327.693 475.076 328.374C475.757 329.054 476.566 329.401 477.502 329.401H493.588C494.524 329.401 495.333 329.054 496.014 328.374C496.694 327.693 497.034 326.884 497.034 325.948V313.058C497.034 312.122 496.694 311.313 496.014 310.632C495.333 309.952 494.524 309.612 493.588 309.612H477.502Z" fill="#282457" stroke="white" stroke-width="22.5277"/>
<path d="M79.1281 330C78.1919 330 77.4259 329.702 76.8302 329.106C76.2344 328.511 75.9365 327.745 75.9365 326.808V243.826C75.9365 242.89 76.2344 242.124 76.8302 241.528C77.4259 240.933 78.1919 240.635 79.1281 240.635H96.2352C97.1714 240.635 97.9374 240.933 98.5331 241.528C99.1289 242.124 99.4268 242.89 99.4268 243.826V326.808C99.4268 327.745 99.1289 328.511 98.5331 329.106C97.9374 329.702 97.1714 330 96.2352 330H79.1281ZM120.519 330C119.583 330 118.817 329.702 118.221 329.106C117.626 328.511 117.328 327.745 117.328 326.808V243.826C117.328 242.89 117.626 242.124 118.221 241.528C118.817 240.933 119.583 240.635 120.519 240.635H136.605C137.541 240.635 138.307 240.933 138.903 241.528C139.499 242.124 139.797 242.89 139.797 243.826V272.168L163.415 243.06C163.755 242.55 164.308 242.039 165.074 241.528C165.925 240.933 167.032 240.635 168.394 240.635H186.777C187.543 240.635 188.182 240.933 188.692 241.528C189.203 242.039 189.458 242.635 189.458 243.316C189.458 243.912 189.288 244.422 188.948 244.848L158.436 283.402L191.373 325.787C191.714 326.128 191.884 326.638 191.884 327.319C191.884 328 191.586 328.638 190.99 329.234C190.48 329.745 189.884 330 189.203 330H170.181C168.649 330 167.457 329.66 166.606 328.979C165.84 328.298 165.33 327.787 165.074 327.447L139.797 295.914V326.808C139.797 327.745 139.499 328.511 138.903 329.106C138.307 329.702 137.541 330 136.605 330H120.519ZM205.047 330C204.196 330 203.43 329.702 202.749 329.106C202.154 328.511 201.856 327.745 201.856 326.808V243.826C201.856 242.89 202.154 242.124 202.749 241.528C203.43 240.933 204.196 240.635 205.047 240.635H218.835C220.197 240.635 221.218 241.018 221.899 241.784C222.665 242.465 223.133 243.018 223.303 243.443L245.772 283.785L268.241 243.443C268.497 243.018 268.922 242.465 269.518 241.784C270.199 241.018 271.263 240.635 272.709 240.635H286.37C287.306 240.635 288.072 240.933 288.668 241.528C289.348 242.124 289.689 242.89 289.689 243.826V326.808C289.689 327.745 289.348 328.511 288.668 329.106C288.072 329.702 287.306 330 286.37 330H271.177C270.241 330 269.433 329.702 268.752 329.106C268.156 328.511 267.858 327.745 267.858 326.808V278.934L253.432 305.616C253.092 306.382 252.581 307.063 251.9 307.659C251.219 308.254 250.283 308.552 249.092 308.552H242.453C241.261 308.552 240.325 308.254 239.644 307.659C238.963 307.063 238.41 306.382 237.985 305.616L223.559 278.934V326.808C223.559 327.745 223.261 328.511 222.665 329.106C222.069 329.702 221.303 330 220.367 330H205.047ZM330.305 330C329.369 330 328.603 329.702 328.007 329.106C327.411 328.511 327.113 327.745 327.113 326.808V260.678H304.389C303.453 260.678 302.687 260.38 302.091 259.785C301.495 259.104 301.198 258.338 301.198 257.487V243.826C301.198 242.89 301.495 242.124 302.091 241.528C302.687 240.933 303.453 240.635 304.389 240.635H373.073C374.009 240.635 374.775 240.933 375.371 241.528C375.966 242.124 376.264 242.89 376.264 243.826V257.487C376.264 258.338 375.966 259.104 375.371 259.785C374.775 260.38 374.009 260.678 373.073 260.678H350.348V326.808C350.348 327.745 350.051 328.511 349.455 329.106C348.859 329.702 348.093 330 347.157 330H330.305ZM414.038 330C413.187 330 412.421 329.702 411.74 329.106C411.144 328.511 410.846 327.745 410.846 326.808V299.361L381.228 244.72C381.143 244.465 381.058 244.252 380.973 244.082C380.888 243.826 380.845 243.571 380.845 243.316C380.845 242.635 381.101 242.039 381.611 241.528C382.207 240.933 382.888 240.635 383.654 240.635H399.612C400.889 240.635 401.867 240.975 402.548 241.656C403.314 242.252 403.782 242.805 403.953 243.316L422.336 276.253L440.72 243.316C440.975 242.805 441.443 242.252 442.124 241.656C442.89 240.975 443.912 240.635 445.188 240.635H461.146C461.912 240.635 462.551 240.933 463.061 241.528C463.572 242.039 463.827 242.635 463.827 243.316C463.827 243.571 463.785 243.826 463.7 244.082C463.7 244.252 463.657 244.465 463.572 244.72L433.826 299.361V326.808C433.826 327.745 433.528 328.511 432.932 329.106C432.337 329.702 431.571 330 430.634 330H414.038ZM477.061 301.786C476.125 301.786 475.359 301.488 474.763 300.892C474.168 300.212 473.87 299.446 473.87 298.595V243.826C473.87 242.89 474.168 242.124 474.763 241.528C475.359 240.933 476.125 240.635 477.061 240.635H491.743C492.594 240.635 493.317 240.933 493.913 241.528C494.594 242.124 494.934 242.89 494.934 243.826V298.595C494.934 299.446 494.594 300.212 493.913 300.892C493.317 301.488 492.594 301.786 491.743 301.786H477.061ZM476.551 330C475.615 330 474.849 329.702 474.253 329.106C473.657 328.511 473.359 327.745 473.359 326.808V311.106C473.359 310.169 473.657 309.403 474.253 308.808C474.849 308.127 475.615 307.786 476.551 307.786H492.254C493.105 307.786 493.828 308.127 494.424 308.808C495.105 309.403 495.445 310.169 495.445 311.106V326.808C495.445 327.745 495.105 328.511 494.424 329.106C493.828 329.702 493.105 330 492.254 330H476.551Z" fill="#282457"/>
</g>
<defs>
<clipPath id="clip0_57_38">
<rect width="569.839" height="569.839" fill="white"/>
</clipPath>
</defs>
</svg>
